PathFileType	4	(X/Y/Z)	OpenSim_Sub09_EMGStiffKnee_Magnet.trc
DataRate	CameraRate	NumFrames	NumMarkers	Units	OrigDataRate	OrigDataStartFrame	OrigNumFrames
100	100	30	8	m	100	3793	7584
Frame#	Time	torso_imu_offset_imu	pelvis_imu_offset_imu	tibia_r_imu_offset_imu	femur_r_imu_offset_imu	tibia_l_imu_offset_imu	femur_l_imu_offset_imu	toes_r_imu_offset_imu	toes_l_imu_offset_imu
				X1	Y1	Z1	X2	Y2	Z2	X3	Y3	Z3	X4	Y4	Z4	X5	Y5	Z5	X6	Y6	Z6	X7	Y7	Z7	X8		Y8	Z8	

3793	37.92000000	-0.89374387	-0.28374164	0.08178848	-0.54473381	0.35711055	-0.68954003	-0.71706458	-0.47554288	-0.22026015	-0.83333421	-0.19586208	-0.13308713	-0.56390302	0.53604858	0.30175925	-0.61469111	0.44904942	0.33114683	-0.58347821	-0.01160490	-0.53099625	-0.75806503	-0.14417146	-0.34836412
3794	37.93000000	-0.90003084	-0.27891658	0.08876354	-0.53958683	0.35495582	-0.69934072	-0.72198803	-0.45924782	-0.22754886	-0.83339043	-0.19727373	-0.12909672	-0.55830201	0.54106917	0.29245714	-0.61862192	0.45374034	0.33116867	-0.57764710	-0.00844528	-0.54576001	-0.77179905	-0.13781069	-0.34370270
3795	37.94000000	-0.90118835	-0.27896578	0.09533180	-0.54149065	0.34639099	-0.69221410	-0.73293427	-0.43645229	-0.23317439	-0.82941432	-0.20360110	-0.12185539	-0.54915186	0.54925619	0.29827588	-0.61951298	0.45778341	0.32730696	-0.56333137	-0.01454315	-0.55668567	-0.77120832	-0.13305835	-0.34370070
3796	37.95000000	-0.89439148	-0.27345075	0.09985658	-0.53768141	0.34668981	-0.70289632	-0.73966092	-0.41911117	-0.23368209	-0.82632924	-0.20592551	-0.11479319	-0.54684895	0.55857296	0.28944073	-0.61353985	0.46410588	0.32041661	-0.55450662	-0.00744086	-0.56273105	-0.76771802	-0.13106922	-0.33755145
3797	37.96000000	-0.90038131	-0.26277432	0.10155662	-0.53289121	0.33442562	-0.70343269	-0.75328102	-0.40227535	-0.23850234	-0.83277841	-0.20802855	-0.11182515	-0.54103514	0.56520895	0.29253440	-0.60706595	0.47506963	0.31567209	-0.54447134	0.00125346	-0.57535251	-0.77906998	-0.12447121	-0.33038615
3798	37.97000000	-0.90335102	-0.25797371	0.10551058	-0.52853946	0.33362030	-0.70760509	-0.75028967	-0.39147138	-0.24154079	-0.82897322	-0.20997645	-0.11205203	-0.53177131	0.57374323	0.29077457	-0.60644280	0.47792499	0.31079530	-0.53610206	0.00916440	-0.57795125	-0.77787517	-0.12394029	-0.33013298
3799	37.98000000	-0.90338804	-0.25195892	0.10965551	-0.52564652	0.33019651	-0.70963645	-0.75411612	-0.37900632	-0.24213556	-0.82883692	-0.21230147	-0.10748408	-0.53397820	0.58278893	0.28606849	-0.60908317	0.48166801	0.31059394	-0.52835755	0.02165767	-0.58777945	-0.77946508	-0.12231059	-0.32617469
3800	37.99000000	-0.90593481	-0.24550001	0.11402010	-0.53009582	0.32401694	-0.71874193	-0.75670266	-0.37200110	-0.23822290	-0.82433616	-0.21231010	-0.10545869	-0.52628957	0.58920204	0.27849961	-0.60734382	0.49050340	0.30673376	-0.51776300	0.02851936	-0.59339336	-0.78201718	-0.11606398	-0.31755566
3801	38	-0.90406387	-0.24165229	0.11571916	-0.52365176	0.31557059	-0.71686846	-0.76293464	-0.36950015	-0.23564020	-0.83073534	-0.21447027	-0.09398024	-0.51718164	0.60017674	0.27776450	-0.60720068	0.49511142	0.29749456	-0.51693369	0.03458937	-0.59076970	-0.78852784	-0.11313614	-0.31019567
3802	38.01000000	-0.90393464	-0.22881480	0.12222063	-0.52655527	0.31117354	-0.71826050	-0.76369421	-0.37037222	-0.23571407	-0.82453478	-0.21288755	-0.09361015	-0.51274713	0.60674458	0.27146448	-0.60549968	0.50146461	0.29493684	-0.51979408	0.03897410	-0.59905571	-0.79109026	-0.11560508	-0.30642944
3803	38.02000000	-0.90853694	-0.22811521	0.11797238	-0.53171081	0.30120773	-0.72287857	-0.76160431	-0.35913386	-0.23205562	-0.83255664	-0.20685921	-0.08749702	-0.50486551	0.61968693	0.26170889	-0.60171811	0.50409384	0.29037090	-0.51370904	0.04126132	-0.59771430	-0.79352509	-0.10977308	-0.29088015
3804	38.03000000	-0.90680414	-0.22084837	0.12386669	-0.52666829	0.29218384	-0.72290000	-0.76354008	-0.37410040	-0.22508465	-0.82749544	-0.20255052	-0.08503807	-0.49584776	0.62707619	0.25396695	-0.59495941	0.51008555	0.28837472	-0.51688781	0.03951914	-0.59746815	-0.79394942	-0.10691491	-0.28202722
3805	38.04000000	-0.91046766	-0.21164641	0.12178500	-0.53513176	0.28837589	-0.72032295	-0.75516625	-0.38401624	-0.21804086	-0.82858552	-0.19832000	-0.07699185	-0.48931997	0.63544011	0.25327368	-0.59541708	0.51895399	0.27773918	-0.52058799	0.03749339	-0.59386195	-0.79562309	-0.10549289	-0.26570213
3806	38.05000000	-0.91549184	-0.20959032	0.12524991	-0.53030257	0.27217726	-0.72158621	-0.75639894	-0.38748346	-0.20928617	-0.83164115	-0.19464748	-0.06312968	-0.47895441	0.64634355	0.24455596	-0.58647338	0.52331196	0.26752650	-0.53625197	0.03448057	-0.58611581	-0.80265836	-0.09604348	-0.26738456
3807	38.06000000	-0.91364150	-0.20173915	0.13026884	-0.54231747	0.26324962	-0.72581231	-0.75424686	-0.40177550	-0.19618460	-0.82944032	-0.18421825	-0.05431971	-0.46800146	0.65736228	0.23465562	-0.59261425	0.53447993	0.26976775	-0.55635246	0.04409554	-0.56591673	-0.80670240	-0.10267262	-0.25396934
3808	38.07000000	-0.91992089	-0.19125376	0.12375981	-0.53672805	0.24875222	-0.73026167	-0.75201306	-0.40743993	-0.17570847	-0.83535642	-0.18366497	-0.04064806	-0.45915471	0.66829845	0.22727918	-0.59004422	0.53236867	0.25949326	-0.59312404	0.03622868	-0.51902969	-0.81459098	-0.09306370	-0.22862400
3809	38.08000000	-0.92056033	-0.18208240	0.12201627	-0.53805784	0.24353051	-0.73203972	-0.74784986	-0.40487513	-0.16575298	-0.83651168	-0.18127237	-0.03357583	-0.44874332	0.67963286	0.21565439	-0.57858729	0.54645499	0.25021281	-0.61683740	0.00796155	-0.48357580	-0.80840183	-0.08997552	-0.21855256
3810	38.09000000	-0.92463511	-0.18019718	0.12738748	-0.53074055	0.24167717	-0.74141664	-0.74727629	-0.41636582	-0.15836838	-0.83197665	-0.19276191	-0.02170948	-0.43559505	0.68863687	0.20793241	-0.58474978	0.55619288	0.23633765	-0.63976892	0.01014518	-0.46014474	-0.80999667	-0.08422103	-0.20443493
3811	38.10000000	-0.92553430	-0.17020524	0.11595253	-0.52134245	0.24108855	-0.73985019	-0.74387737	-0.42855407	-0.15437908	-0.82922058	-0.20175046	-0.01821245	-0.42612229	0.69726181	0.20066609	-0.58137264	0.55885796	0.23585293	-0.65516338	-0.00110896	-0.43927475	-0.81489301	-0.07357782	-0.17777746
3812	38.11000000	-0.92323353	-0.16485725	0.12153644	-0.52282358	0.24732829	-0.73960485	-0.72661536	-0.45083421	-0.13055371	-0.82899932	-0.20498182	-0.01838171	-0.42293740	0.70809682	0.19350363	-0.58045405	0.55865501	0.22565265	-0.66540128	-0.00670402	-0.41856779	-0.82168529	-0.06279014	-0.15711985
3813	38.12000000	-0.92736815	-0.16498150	0.11403320	-0.52521451	0.24798613	-0.73988481	-0.71861398	-0.47263856	-0.10651434	-0.83135396	-0.19129512	-0.01253542	-0.40123768	0.71753257	0.18387344	-0.58524052	0.56691706	0.21765780	-0.67770055	-0.00884334	-0.39536560	-0.82918004	-0.04956858	-0.13287892
3814	38.13000000	-0.92786460	-0.16096581	0.11043873	-0.52716698	0.24433487	-0.73755218	-0.71439257	-0.48198501	-0.09056155	-0.83594513	-0.18256090	-0.00815568	-0.39329863	0.71997761	0.18050567	-0.58786090	0.56969234	0.21797959	-0.68845649	-0.01080022	-0.38382000	-0.83150473	-0.04300582	-0.10838090
3815	38.14000000	-0.92757308	-0.16053645	0.11281781	-0.52900952	0.23188217	-0.73662162	-0.70965790	-0.49010030	-0.06642279	-0.83629615	-0.17026659	-0.00146556	-0.38344527	0.73006936	0.18240705	-0.58773804	0.57193304	0.20724014	-0.69312309	-0.01704367	-0.37560900	-0.83907749	-0.02923307	-0.07928847
3816	38.15000000	-0.92984944	-0.16076254	0.11469658	-0.53300674	0.23041776	-0.73928938	-0.70947557	-0.49701047	-0.04712838	-0.83887732	-0.16360220	-0.00191916	-0.37006112	0.74183261	0.17375553	-0.59173396	0.57160381	0.19982174	-0.69510744	-0.01966237	-0.36868652	-0.83591698	-0.00835214	-0.05231500
3817	38.16000000	-0.92809988	-0.16028338	0.11912169	-0.53573470	0.23522658	-0.73692477	-0.70351455	-0.49890706	-0.03788427	-0.83673093	-0.15733016	0.00885727	-0.35919655	0.74419208	0.16569526	-0.59658273	0.57583952	0.19403310	-0.69714590	-0.02288109	-0.36692974	-0.83787075	-0.00615629	-0.02333062
3818	38.17000000	-0.92547018	-0.16499928	0.12363133	-0.53179740	0.22757741	-0.74309755	-0.69719919	-0.51218639	-0.02439367	-0.84290179	-0.15451767	0.01177316	-0.34560485	0.75265166	0.16728307	-0.59891576	0.57463219	0.17590042	-0.69712950	-0.03318973	-0.35613144	-0.83436115	0.01255391	0.00195593
3819	38.18000000	-0.92794143	-0.15692686	0.12607558	-0.52863057	0.22073029	-0.74366851	-0.68200839	-0.53155710	-0.01200350	-0.83960178	-0.16196052	0.01823845	-0.34266171	0.75563692	0.16294491	-0.60098172	0.56758938	0.17486968	-0.69678549	-0.03595638	-0.35979140	-0.83687695	0.02393242	0.02400608
3820	38.19000000	-0.92561711	-0.16030295	0.12230296	-0.53298359	0.22036876	-0.74299383	-0.67854455	-0.53880856	-0.00602800	-0.83434221	-0.17421126	0.02980973	-0.33704959	0.75716586	0.16410660	-0.60260721	0.57126790	0.16688288	-0.70088085	-0.03988022	-0.35215095	-0.83320557	0.04112234	0.05158877
3821	38.20000000	-0.92765428	-0.15862479	0.11939966	-0.53121868	0.21895317	-0.74978783	-0.67484613	-0.54105942	-0.01455090	-0.83438844	-0.18837371	0.04010716	-0.32373397	0.76445737	0.16997272	-0.61188166	0.57199452	0.15923922	-0.70103269	-0.04373341	-0.34943267	-0.83388900	0.05258137	0.06568258
3822	38.21000000	-0.92565298	-0.16039704	0.11983207	-0.53233677	0.20865512	-0.75006275	-0.67027869	-0.54461407	-0.01492323	-0.82575298	-0.20650340	0.04354397	-0.31432845	0.75786670	0.17954553	-0.61151893	0.56564471	0.15565819	-0.70069840	-0.05214629	-0.34730887	-0.82551884	0.06742395	0.08524927
